[img]http://leetleech.org/images/69648970786935352232.jpg[/img]

[b]Turtles Forever (2009) DVDRip XviD-SKITTLES[/b]

[img]http://leetleech.org/images/39185456263711143641.png[/img]

Video
ID                               : 0
Format                           : MPEG-4 Visual
Format profile                   : Advanced Simple@L5
Format settings, BVOP            : Yes
Format settings, QPel            : No
Format settings, GMC             : No warppoints
Format settings, Matrix          : Default (H.263)
Muxing mode                      : Packed bitstream
Codec ID                         : XVID
Codec ID/Hint                    : XviD
Duration                         : 1h 12mn
Bit rate                         : 1 217 Kbps
Width                            : 720 pixels
Height                           : 304 pixels
Display aspect ratio             : 2.35:1
Frame rate                       : 23.976 fps
Color space                      : YUV
Chroma subsampling               : 4:2:0
Bit depth                        : 8 bits
Scan type                        : Progressive
Bits/(Pixel*Frame)               : 0.232
Stream size                      : 632 MiB (90%)
Writing library                  : XviD 1.2.1 (UTC 2008-12-04)

Audio
ID                               : 1
Format                           : MPEG Audio
Format version                   : Version 1
Format profile                   : Layer 3
Mode                             : Joint stereo
Mode extension                   : MS Stereo
Codec ID                         : 55
Codec ID/Hint                    : MP3
Duration                         : 1h 12mn
Bit rate mode                    : Constant
Bit rate                         : 128 Kbps
Channel(s)                       : 2 channels
Sampling rate                    : 48.0 KHz
Stream size                      : 66.5 MiB (9%)
Alignment                        : Aligned on interleaves
Interleave, duration             : 42 ms (1.00 video frame)
Interleave, preload duration     : 504 ms
 
http://www.imdb.com/title/tt1543920/

[img]http://leetleech.org/images/46941880339015444838.png[/img]

Michael Sinterniklaas...Leonardo (voice)
Wayne Grayson	... 	Michelangelo (voice)
Sam Riegel	... 	Donatello (voice)
Gregory Abbey	... 	Raphael (voice) (as Greg Abbey)
Darren Dunstan	... 	Splinter (voice)
Marc Thompson	... 	Casey Jones (voice)
Veronica Taylor	... 	April O'Neil (voice)
Scottie Ray	... 	The Shredder / Ch'rell (voice)

[img]http://leetleech.org/images/70187465700988366433.png[/img]

Genre:
Animation | Action | Adventure | Comedy | Thriller

The 2003 Ninja Turtles find their 1987 originals captured and 
held hostage by Hun. The 2003 Turtles defeat Hun, and the Purple 
Dragons and rescue their classic originals and escape to the modern 
Turtles' Lair. Meanwhile, the Technodrome from the 1987 TV series 
along with Shredder, Krang, Bebop and Rocksteady are together 
again and fight both versions of the turtles. Meanwhile the 
classic Shredder, transports the Utrom Shredder back from the 
ice asteroid that he was sent to after the "Exodus" episode. 
The classic Shredder and Krang had no idea that the modern 
Shredder would turn against them and sets out to erase the entire
Ninja Turtle Universe, starting all the way back to the 1984 Mirage
Comic series to where the Ninja Turtles are as of today, including the
1987 TV series Turtles, the live-action turtles, all the comic book 
turtles, and the modern TV series Turtles. 

[img]http://leetleech.org/images/64476088802225496360.png[/img]

[img]http://leetleech.org/images/75413588400270542639.jpg[/img]
[img]http://leetleech.org/images/28281436644741009455.jpg[/img]
[img]http://leetleech.org/images/50319350191807742633.jpg[/img]
[img]http://leetleech.org/images/94804857884795118809.jpg[/img]
[img]http://leetleech.org/images/64795907278224645931.jpg[/img]
[img]http://leetleech.org/images/80873469664828108267.jpg[/img]